<svg xmlns="http://www.w3.org/2000/svg" viewBox="0 0 23 24" width="23" height="24">
	<style>
		tspan { white-space:pre }
		.shp0 { fill: #000000 } 
	</style>
	<g id="Items details">
		<g id="1">
			<g id="Share">
				<g id="Share button">
					<path id="Forma 1" class="shp0" d="M15.79 16.92C15.6 17.11 15.44 17.32 15.3 17.53L9.01 13.8C9.18 13.39 9.27 12.95 9.27 12.48C9.27 12.02 9.18 11.58 9.01 11.17L15.3 7.46C15.94 8.46 17.07 9.12 18.36 9.12C20.37 9.12 22 7.52 22 5.56C22 3.6 20.37 2 18.36 2C16.36 2 14.73 3.6 14.73 5.56C14.73 6.01 14.82 6.43 14.97 6.83L8.68 10.54C8.03 9.57 6.91 8.92 5.64 8.92C3.63 8.92 2 10.52 2 12.48C2 14.45 3.63 16.04 5.64 16.04C6.91 16.04 8.03 15.4 8.68 14.43L14.97 18.17C14.81 18.57 14.73 19 14.73 19.44C14.73 20.39 15.11 21.29 15.79 21.96C16.5 22.65 17.43 23 18.36 23C19.29 23 20.23 22.65 20.93 21.96C21.62 21.29 22 20.39 22 19.44C22 18.49 21.62 17.6 20.93 16.92C19.52 15.54 17.21 15.54 15.79 16.92ZM18.36 2.71C19.97 2.71 21.27 3.99 21.27 5.56C21.27 7.13 19.97 8.41 18.36 8.41C16.76 8.41 15.45 7.13 15.45 5.56C15.45 3.99 16.76 2.71 18.36 2.71ZM5.64 15.33C4.03 15.33 2.73 14.05 2.73 12.48C2.73 10.91 4.03 9.64 5.64 9.64C7.24 9.64 8.55 10.91 8.55 12.48C8.55 14.05 7.24 15.33 5.64 15.33ZM20.42 21.46C19.29 22.57 17.44 22.57 16.31 21.46C15.76 20.92 15.45 20.2 15.45 19.44C15.45 18.68 15.76 17.97 16.31 17.43C16.87 16.87 17.62 16.6 18.36 16.6C19.11 16.6 19.85 16.87 20.42 17.43C20.97 17.97 21.27 18.68 21.27 19.44C21.27 20.2 20.97 20.92 20.42 21.46Z" />
				</g>
			</g>
		</g>
	</g>
</svg>